<?xml version="1.0" encoding="UTF-8"?><svg id="Layer_2" xmlns="http://www.w3.org/2000/svg" viewBox="0 0 1760.26 1760.26"><defs><style>.cls-1{fill:#ff0f71;}.cls-2{fill:#000111;stroke:#000;}.cls-2,.cls-3{stroke-miterlimit:10;}.cls-3{fill:none;stroke:#7ff6ff;stroke-width:93.92px;}</style></defs><g id="Layer_1-2"><rect id="Logo_Background" class="cls-2" x=".5" y=".5" width="1759.26" height="1759.26" rx="246.38" ry="246.38"/><g><ellipse class="cls-3" cx="477.83" cy="910.91" rx="235.79" ry="236.25" transform="translate(-448.31 1358.51) rotate(-88.11)"/><path class="cls-1" d="M1055.89,1069.17c-23.46-44.86-33.69-93.09-32.09-140.29l93.2,3.07c-.02,.46-.04,.92-.05,1.38-3.46,105.09,78.93,193.09,184.02,196.55,105.1,3.46,193.1-78.93,196.55-184.02,3.46-105.1-78.93-193.1-184.03-196.56l3.09-94.01c98.82,3.35,193.05,58.25,242.08,151.98,72.48,138.57,18.69,309.55-120.15,381.87-138.83,72.32-310.14,18.61-382.62-119.96Z"/><path class="cls-1" d="M841.09,732.93c-3.6-.12-7.18-.13-10.73-.05l-53.74-86.78c120.69-26.59,248.74,30.02,308.6,145.87,23.22,44.92,33.34,93.26,31.74,140.54l-93.3-3.07c3.46-105.1-78.28-193.07-182.57-196.51Z"/></g></g></svg>